# xmcd
#
# Track frame offsets: 
#        150
#        22755
#        39235
#        56205
#        69027
#        84282
#        104247
#        119765
#        138990
#        157345
#        171845
#        175090
#        192120
#        211482
#        231567
#
# Disc length: 3334 seconds
#
# Revision: 1
# Processed by: cddbd v1.5.2PL0 Copyright (c) Steve Scherf et al.
# Submitted via: ExactAudioCopy v1.3
#
DISCID=d30d040f
DTITLE=Various Artist - Blues Revue Dec-Jan 2003
DYEAR=2002
DGENRE=Blues
TTITLE0=Big Daddy G - Your're cute
TTITLE1=Shemekia Copeland - Sholanda's
TTITLE2=Rick Holmstrom - Shake it part 2
TTITLE3=Joe Richardson Express - Somhelgisfel
TTITLE4=Harry Manx - Don't forget to miss me
TTITLE5=Seth Allen - Same old memphis
TTITLE6=Don Nix and Friends - Same old blues
TTITLE7=The Phillip Walker Big Band - Hello my darling
TTITLE8=Georgie Bonds - Don't ask me for no money
TTITLE9=Jump 4 Joy - Do the Louie
TTITLE10=Bobby Manriquez - Jump start
TTITLE11=Bobby Manriquez - How we start
TTITLE12=Johnny Drummer and Liz Mandville Greeson - Stop cheating
TTITLE13=Tab Benoit and Jimmy Thackery - Freddy's combo
TTITLE14=Rocky Zharp and The Blues Crackers - Scars
EXTD=YEAR: 2002 ID3G: 0
EXTT0=
EXTT1=
EXTT2=
EXTT3=
EXTT4=
EXTT5=
EXTT6=
EXTT7=
EXTT8=
EXTT9=
EXTT10=
EXTT11=
EXTT12=
EXTT13=
EXTT14=
PLAYORDER=
